<mxfile host="Electron" modified="2023-11-29T08:39:22.531Z" agent="Mozilla/5.0 (X11; Linux x86_64) AppleWebKit/537.36 (KHTML, like Gecko) draw.io/22.1.2 Chrome/114.0.5735.289 Electron/25.9.4 Safari/537.36" etag="GZcZ71OoiBdx2StduKLx" version="22.1.2" type="device">
  <diagram name="Page-1" id="xBY6IuXz5P9b6hBUNgLJ">
    <mxGraphModel dx="3160" dy="5080" grid="1" gridSize="10" guides="1" tooltips="1" connect="1" arrows="1" fold="1" page="1" pageScale="1" pageWidth="850" pageHeight="1100" math="0" shadow="0">
      <root>
        <mxCell id="0" />
        <mxCell id="1" parent="0" />
        <mxCell id="wu2h8seSkJCwCRgyOZjm-6" style="edgeStyle=orthogonalEdgeStyle;rounded=0;orthogonalLoop=1;jettySize=auto;html=1;exitX=0.5;exitY=0;exitDx=0;exitDy=0;entryX=1;entryY=0.5;entryDx=0;entryDy=0;" edge="1" parent="1" source="QIN7DLDA5KX8dcTzZCwB-1" target="QIN7DLDA5KX8dcTzZCwB-8">
          <mxGeometry relative="1" as="geometry" />
        </mxCell>
        <mxCell id="wu2h8seSkJCwCRgyOZjm-14" style="edgeStyle=orthogonalEdgeStyle;rounded=0;orthogonalLoop=1;jettySize=auto;html=1;exitX=0.75;exitY=0;exitDx=0;exitDy=0;entryX=0.5;entryY=0;entryDx=0;entryDy=0;" edge="1" parent="1" source="QIN7DLDA5KX8dcTzZCwB-1" target="wu2h8seSkJCwCRgyOZjm-7">
          <mxGeometry relative="1" as="geometry">
            <Array as="points">
              <mxPoint x="850" y="460" />
              <mxPoint x="1030" y="460" />
            </Array>
          </mxGeometry>
        </mxCell>
        <mxCell id="wu2h8seSkJCwCRgyOZjm-15" style="edgeStyle=orthogonalEdgeStyle;rounded=0;orthogonalLoop=1;jettySize=auto;html=1;exitX=0.75;exitY=0;exitDx=0;exitDy=0;entryX=0.5;entryY=0;entryDx=0;entryDy=0;" edge="1" parent="1" source="QIN7DLDA5KX8dcTzZCwB-1" target="wu2h8seSkJCwCRgyOZjm-11">
          <mxGeometry relative="1" as="geometry">
            <Array as="points">
              <mxPoint x="850" y="450" />
              <mxPoint x="1230" y="450" />
            </Array>
          </mxGeometry>
        </mxCell>
        <mxCell id="wu2h8seSkJCwCRgyOZjm-34" style="edgeStyle=orthogonalEdgeStyle;rounded=0;orthogonalLoop=1;jettySize=auto;html=1;exitX=0.75;exitY=0;exitDx=0;exitDy=0;entryX=0.5;entryY=0;entryDx=0;entryDy=0;" edge="1" parent="1" source="QIN7DLDA5KX8dcTzZCwB-1" target="wu2h8seSkJCwCRgyOZjm-16">
          <mxGeometry relative="1" as="geometry">
            <Array as="points">
              <mxPoint x="850" y="440" />
              <mxPoint x="1430" y="440" />
            </Array>
          </mxGeometry>
        </mxCell>
        <mxCell id="wu2h8seSkJCwCRgyOZjm-35" style="edgeStyle=orthogonalEdgeStyle;rounded=0;orthogonalLoop=1;jettySize=auto;html=1;exitX=0.75;exitY=0;exitDx=0;exitDy=0;entryX=0.5;entryY=0;entryDx=0;entryDy=0;" edge="1" parent="1" source="QIN7DLDA5KX8dcTzZCwB-1" target="wu2h8seSkJCwCRgyOZjm-31">
          <mxGeometry relative="1" as="geometry">
            <Array as="points">
              <mxPoint x="850" y="430" />
              <mxPoint x="1630" y="430" />
            </Array>
          </mxGeometry>
        </mxCell>
        <mxCell id="wu2h8seSkJCwCRgyOZjm-55" style="edgeStyle=orthogonalEdgeStyle;rounded=0;orthogonalLoop=1;jettySize=auto;html=1;exitX=0.75;exitY=0;exitDx=0;exitDy=0;entryX=0.5;entryY=0;entryDx=0;entryDy=0;" edge="1" parent="1" source="QIN7DLDA5KX8dcTzZCwB-1" target="wu2h8seSkJCwCRgyOZjm-36">
          <mxGeometry relative="1" as="geometry">
            <Array as="points">
              <mxPoint x="850" y="420" />
              <mxPoint x="1830" y="420" />
            </Array>
          </mxGeometry>
        </mxCell>
        <mxCell id="wu2h8seSkJCwCRgyOZjm-56" style="edgeStyle=orthogonalEdgeStyle;rounded=0;orthogonalLoop=1;jettySize=auto;html=1;exitX=0.75;exitY=0;exitDx=0;exitDy=0;entryX=0.5;entryY=0;entryDx=0;entryDy=0;" edge="1" parent="1" source="QIN7DLDA5KX8dcTzZCwB-1" target="wu2h8seSkJCwCRgyOZjm-51">
          <mxGeometry relative="1" as="geometry">
            <Array as="points">
              <mxPoint x="850" y="410" />
              <mxPoint x="2030" y="410" />
            </Array>
          </mxGeometry>
        </mxCell>
        <mxCell id="wu2h8seSkJCwCRgyOZjm-57" style="edgeStyle=orthogonalEdgeStyle;rounded=0;orthogonalLoop=1;jettySize=auto;html=1;exitX=0.75;exitY=0;exitDx=0;exitDy=0;entryX=0.5;entryY=0;entryDx=0;entryDy=0;" edge="1" parent="1" source="QIN7DLDA5KX8dcTzZCwB-1" target="wu2h8seSkJCwCRgyOZjm-42">
          <mxGeometry relative="1" as="geometry">
            <Array as="points">
              <mxPoint x="850" y="400" />
              <mxPoint x="2230" y="400" />
            </Array>
          </mxGeometry>
        </mxCell>
        <mxCell id="wu2h8seSkJCwCRgyOZjm-58" style="edgeStyle=orthogonalEdgeStyle;rounded=0;orthogonalLoop=1;jettySize=auto;html=1;exitX=0.75;exitY=0;exitDx=0;exitDy=0;entryX=0.5;entryY=0;entryDx=0;entryDy=0;" edge="1" parent="1" source="QIN7DLDA5KX8dcTzZCwB-1" target="wu2h8seSkJCwCRgyOZjm-53">
          <mxGeometry relative="1" as="geometry">
            <Array as="points">
              <mxPoint x="850" y="390" />
              <mxPoint x="2430" y="390" />
            </Array>
          </mxGeometry>
        </mxCell>
        <mxCell id="wu2h8seSkJCwCRgyOZjm-59" style="edgeStyle=orthogonalEdgeStyle;rounded=0;orthogonalLoop=1;jettySize=auto;html=1;exitX=0.75;exitY=0;exitDx=0;exitDy=0;entryX=0.5;entryY=0;entryDx=0;entryDy=0;" edge="1" parent="1" source="QIN7DLDA5KX8dcTzZCwB-1" target="wu2h8seSkJCwCRgyOZjm-54">
          <mxGeometry relative="1" as="geometry">
            <Array as="points">
              <mxPoint x="850" y="380" />
              <mxPoint x="2630" y="380" />
            </Array>
          </mxGeometry>
        </mxCell>
        <mxCell id="wu2h8seSkJCwCRgyOZjm-63" style="edgeStyle=orthogonalEdgeStyle;rounded=0;orthogonalLoop=1;jettySize=auto;html=1;exitX=0.75;exitY=0;exitDx=0;exitDy=0;entryX=0.5;entryY=0;entryDx=0;entryDy=0;" edge="1" parent="1" source="QIN7DLDA5KX8dcTzZCwB-1" target="wu2h8seSkJCwCRgyOZjm-60">
          <mxGeometry relative="1" as="geometry">
            <Array as="points">
              <mxPoint x="850" y="370" />
              <mxPoint x="2830" y="370" />
            </Array>
          </mxGeometry>
        </mxCell>
        <mxCell id="wu2h8seSkJCwCRgyOZjm-64" style="edgeStyle=orthogonalEdgeStyle;rounded=0;orthogonalLoop=1;jettySize=auto;html=1;exitX=0.75;exitY=0;exitDx=0;exitDy=0;entryX=0.5;entryY=0;entryDx=0;entryDy=0;" edge="1" parent="1" source="QIN7DLDA5KX8dcTzZCwB-1" target="wu2h8seSkJCwCRgyOZjm-61">
          <mxGeometry relative="1" as="geometry">
            <Array as="points">
              <mxPoint x="850" y="360" />
              <mxPoint x="3030" y="360" />
            </Array>
          </mxGeometry>
        </mxCell>
        <mxCell id="wu2h8seSkJCwCRgyOZjm-65" style="edgeStyle=orthogonalEdgeStyle;rounded=0;orthogonalLoop=1;jettySize=auto;html=1;exitX=0.75;exitY=0;exitDx=0;exitDy=0;entryX=0.5;entryY=0;entryDx=0;entryDy=0;" edge="1" parent="1" source="QIN7DLDA5KX8dcTzZCwB-1" target="wu2h8seSkJCwCRgyOZjm-62">
          <mxGeometry relative="1" as="geometry">
            <Array as="points">
              <mxPoint x="850" y="350" />
              <mxPoint x="3230" y="350" />
            </Array>
          </mxGeometry>
        </mxCell>
        <mxCell id="QIN7DLDA5KX8dcTzZCwB-1" value="Event" style="swimlane;fontStyle=1;align=center;verticalAlign=top;childLayout=stackLayout;horizontal=1;startSize=26;horizontalStack=0;resizeParent=1;resizeParentMax=0;resizeLast=0;collapsible=1;marginBottom=0;whiteSpace=wrap;html=1;" parent="1" vertex="1">
          <mxGeometry x="730" y="490" width="160" height="164" as="geometry" />
        </mxCell>
        <mxCell id="QIN7DLDA5KX8dcTzZCwB-2" value="- category: EventCategory" style="text;strokeColor=none;fillColor=none;align=left;verticalAlign=top;spacingLeft=4;spacingRight=4;overflow=hidden;rotatable=0;points=[[0,0.5],[1,0.5]];portConstraint=eastwest;whiteSpace=wrap;html=1;" parent="QIN7DLDA5KX8dcTzZCwB-1" vertex="1">
          <mxGeometry y="26" width="160" height="26" as="geometry" />
        </mxCell>
        <mxCell id="QIN7DLDA5KX8dcTzZCwB-6" value="- type: EventType" style="text;strokeColor=none;fillColor=none;align=left;verticalAlign=top;spacingLeft=4;spacingRight=4;overflow=hidden;rotatable=0;points=[[0,0.5],[1,0.5]];portConstraint=eastwest;whiteSpace=wrap;html=1;" parent="QIN7DLDA5KX8dcTzZCwB-1" vertex="1">
          <mxGeometry y="52" width="160" height="26" as="geometry" />
        </mxCell>
        <mxCell id="QIN7DLDA5KX8dcTzZCwB-5" value="- handled: boolean" style="text;strokeColor=none;fillColor=none;align=left;verticalAlign=top;spacingLeft=4;spacingRight=4;overflow=hidden;rotatable=0;points=[[0,0.5],[1,0.5]];portConstraint=eastwest;whiteSpace=wrap;html=1;" parent="QIN7DLDA5KX8dcTzZCwB-1" vertex="1">
          <mxGeometry y="78" width="160" height="26" as="geometry" />
        </mxCell>
        <mxCell id="wu2h8seSkJCwCRgyOZjm-5" value="- id: UUID" style="text;strokeColor=none;fillColor=none;align=left;verticalAlign=top;spacingLeft=4;spacingRight=4;overflow=hidden;rotatable=0;points=[[0,0.5],[1,0.5]];portConstraint=eastwest;whiteSpace=wrap;html=1;" vertex="1" parent="QIN7DLDA5KX8dcTzZCwB-1">
          <mxGeometry y="104" width="160" height="26" as="geometry" />
        </mxCell>
        <mxCell id="QIN7DLDA5KX8dcTzZCwB-3" value="" style="line;strokeWidth=1;fillColor=none;align=left;verticalAlign=middle;spacingTop=-1;spacingLeft=3;spacingRight=3;rotatable=0;labelPosition=right;points=[];portConstraint=eastwest;strokeColor=inherit;" parent="QIN7DLDA5KX8dcTzZCwB-1" vertex="1">
          <mxGeometry y="130" width="160" height="8" as="geometry" />
        </mxCell>
        <mxCell id="QIN7DLDA5KX8dcTzZCwB-4" value="+ toString(): String" style="text;strokeColor=none;fillColor=none;align=left;verticalAlign=top;spacingLeft=4;spacingRight=4;overflow=hidden;rotatable=0;points=[[0,0.5],[1,0.5]];portConstraint=eastwest;whiteSpace=wrap;html=1;" parent="QIN7DLDA5KX8dcTzZCwB-1" vertex="1">
          <mxGeometry y="138" width="160" height="26" as="geometry" />
        </mxCell>
        <mxCell id="QIN7DLDA5KX8dcTzZCwB-7" value="Dispatcher" style="swimlane;fontStyle=1;align=center;verticalAlign=top;childLayout=stackLayout;horizontal=1;startSize=26;horizontalStack=0;resizeParent=1;resizeParentMax=0;resizeLast=0;collapsible=1;marginBottom=0;whiteSpace=wrap;html=1;" parent="1" vertex="1">
          <mxGeometry x="90" y="490" width="560" height="112" as="geometry" />
        </mxCell>
        <mxCell id="QIN7DLDA5KX8dcTzZCwB-8" value="- listeners:&amp;nbsp; Map&amp;lt;EventType, Map&amp;lt;EventCategory, List&amp;lt;Consumer&amp;lt;Event&amp;gt;&amp;gt;&amp;gt;&amp;gt;" style="text;strokeColor=none;fillColor=none;align=left;verticalAlign=top;spacingLeft=4;spacingRight=4;overflow=hidden;rotatable=0;points=[[0,0.5],[1,0.5]];portConstraint=eastwest;whiteSpace=wrap;html=1;" parent="QIN7DLDA5KX8dcTzZCwB-7" vertex="1">
          <mxGeometry y="26" width="560" height="26" as="geometry" />
        </mxCell>
        <mxCell id="QIN7DLDA5KX8dcTzZCwB-9" value="" style="line;strokeWidth=1;fillColor=none;align=left;verticalAlign=middle;spacingTop=-1;spacingLeft=3;spacingRight=3;rotatable=0;labelPosition=right;points=[];portConstraint=eastwest;strokeColor=inherit;" parent="QIN7DLDA5KX8dcTzZCwB-7" vertex="1">
          <mxGeometry y="52" width="560" height="8" as="geometry" />
        </mxCell>
        <mxCell id="QIN7DLDA5KX8dcTzZCwB-10" value="+ addListener(EventType eventType, EventCategory category, Consumer&amp;lt;Event&amp;gt; listener):&amp;nbsp; void" style="text;strokeColor=none;fillColor=none;align=left;verticalAlign=top;spacingLeft=4;spacingRight=4;overflow=hidden;rotatable=0;points=[[0,0.5],[1,0.5]];portConstraint=eastwest;whiteSpace=wrap;html=1;" parent="QIN7DLDA5KX8dcTzZCwB-7" vertex="1">
          <mxGeometry y="60" width="560" height="26" as="geometry" />
        </mxCell>
        <mxCell id="QIN7DLDA5KX8dcTzZCwB-11" value="+ dispatch(Event event): void" style="text;strokeColor=none;fillColor=none;align=left;verticalAlign=top;spacingLeft=4;spacingRight=4;overflow=hidden;rotatable=0;points=[[0,0.5],[1,0.5]];portConstraint=eastwest;whiteSpace=wrap;html=1;" parent="QIN7DLDA5KX8dcTzZCwB-7" vertex="1">
          <mxGeometry y="86" width="560" height="26" as="geometry" />
        </mxCell>
        <mxCell id="wu2h8seSkJCwCRgyOZjm-2" style="edgeStyle=orthogonalEdgeStyle;rounded=0;orthogonalLoop=1;jettySize=auto;html=1;exitX=0.5;exitY=1;exitDx=0;exitDy=0;entryX=0;entryY=0.5;entryDx=0;entryDy=0;" edge="1" parent="1" source="wu2h8seSkJCwCRgyOZjm-1" target="QIN7DLDA5KX8dcTzZCwB-6">
          <mxGeometry relative="1" as="geometry" />
        </mxCell>
        <mxCell id="wu2h8seSkJCwCRgyOZjm-1" value="&lt;p style=&quot;margin:0px;margin-top:4px;text-align:center;&quot;&gt;&lt;i&gt;&amp;lt;&amp;lt;Enum&amp;gt;&amp;gt;&lt;/i&gt;&lt;br&gt;&lt;b&gt;EventType&lt;/b&gt;&lt;/p&gt;&lt;hr size=&quot;1&quot;&gt;&lt;p style=&quot;margin:0px;margin-left:4px;&quot;&gt;+ KeyPressedEvent&lt;/p&gt;&lt;p style=&quot;margin:0px;margin-left:4px;&quot;&gt;+ KeyReleasedEvent&lt;/p&gt;&lt;p style=&quot;margin:0px;margin-left:4px;&quot;&gt;+ KeyTypedEvent&lt;/p&gt;&lt;p style=&quot;margin:0px;margin-left:4px;&quot;&gt;+ MouseButtonPressedEvent&lt;/p&gt;&lt;p style=&quot;margin:0px;margin-left:4px;&quot;&gt;+ MouseButtonReleasedEvent&lt;/p&gt;&lt;p style=&quot;margin:0px;margin-left:4px;&quot;&gt;+ MouseMovedEvent&lt;/p&gt;&lt;p style=&quot;margin:0px;margin-left:4px;&quot;&gt;+ MouseScrolledEvent&lt;/p&gt;&lt;p style=&quot;margin:0px;margin-left:4px;&quot;&gt;+ WindowResizeEvent&lt;/p&gt;&lt;p style=&quot;margin:0px;margin-left:4px;&quot;&gt;+ WindowCloseEvent&lt;/p&gt;&lt;p style=&quot;margin:0px;margin-left:4px;&quot;&gt;+ WindowDropEvent&lt;/p&gt;&lt;p style=&quot;margin:0px;margin-left:4px;&quot;&gt;+ WindowFocusEvent&lt;/p&gt;&lt;p style=&quot;margin:0px;margin-left:4px;&quot;&gt;+ WindowLostFocusEvent&lt;/p&gt;&lt;p style=&quot;margin:0px;margin-left:4px;&quot;&gt;+ WindowMovedEvent&lt;/p&gt;&lt;p style=&quot;margin:0px;margin-left:4px;&quot;&gt;+ AppUpdateEvent&lt;/p&gt;&lt;p style=&quot;margin:0px;margin-left:4px;&quot;&gt;+ AppRenderEvent&lt;/p&gt;&lt;p style=&quot;margin:0px;margin-left:4px;&quot;&gt;+ AppTickEvent&lt;/p&gt;" style="verticalAlign=top;align=left;overflow=fill;fontSize=12;fontFamily=Helvetica;html=1;whiteSpace=wrap;" vertex="1" parent="1">
          <mxGeometry x="590" y="120" width="190" height="290" as="geometry" />
        </mxCell>
        <mxCell id="wu2h8seSkJCwCRgyOZjm-4" style="edgeStyle=orthogonalEdgeStyle;rounded=0;orthogonalLoop=1;jettySize=auto;html=1;exitX=0.5;exitY=1;exitDx=0;exitDy=0;entryX=1;entryY=0.5;entryDx=0;entryDy=0;" edge="1" parent="1" source="wu2h8seSkJCwCRgyOZjm-3" target="QIN7DLDA5KX8dcTzZCwB-2">
          <mxGeometry relative="1" as="geometry" />
        </mxCell>
        <mxCell id="wu2h8seSkJCwCRgyOZjm-3" value="&lt;p style=&quot;margin:0px;margin-top:4px;text-align:center;&quot;&gt;&lt;i&gt;&amp;lt;&amp;lt;Enum&amp;gt;&amp;gt;&lt;/i&gt;&lt;br&gt;&lt;b&gt;EventCategory&lt;/b&gt;&lt;/p&gt;&lt;hr size=&quot;1&quot;&gt;&lt;p style=&quot;margin:0px;margin-left:4px;&quot;&gt;+ None&lt;/p&gt;&lt;p style=&quot;margin:0px;margin-left:4px;&quot;&gt;+ Application&lt;/p&gt;&lt;p style=&quot;margin:0px;margin-left:4px;&quot;&gt;+ Input&lt;/p&gt;&lt;p style=&quot;margin:0px;margin-left:4px;&quot;&gt;+ Keyboard&lt;/p&gt;&lt;p style=&quot;margin:0px;margin-left:4px;&quot;&gt;+ Mouse&lt;/p&gt;&lt;p style=&quot;margin:0px;margin-left:4px;&quot;&gt;+ MouseButton&lt;/p&gt;" style="verticalAlign=top;align=left;overflow=fill;fontSize=12;fontFamily=Helvetica;html=1;whiteSpace=wrap;" vertex="1" parent="1">
          <mxGeometry x="820" y="120" width="190" height="150" as="geometry" />
        </mxCell>
        <mxCell id="wu2h8seSkJCwCRgyOZjm-21" style="edgeStyle=orthogonalEdgeStyle;rounded=0;orthogonalLoop=1;jettySize=auto;html=1;exitX=0.25;exitY=0;exitDx=0;exitDy=0;entryX=0;entryY=0.5;entryDx=0;entryDy=0;" edge="1" parent="1" source="wu2h8seSkJCwCRgyOZjm-7" target="wu2h8seSkJCwCRgyOZjm-20">
          <mxGeometry relative="1" as="geometry">
            <Array as="points">
              <mxPoint x="990" y="471" />
              <mxPoint x="930" y="471" />
              <mxPoint x="930" y="596" />
            </Array>
          </mxGeometry>
        </mxCell>
        <mxCell id="wu2h8seSkJCwCRgyOZjm-23" style="edgeStyle=orthogonalEdgeStyle;rounded=0;orthogonalLoop=1;jettySize=auto;html=1;exitX=0.25;exitY=0;exitDx=0;exitDy=0;entryX=0;entryY=0.5;entryDx=0;entryDy=0;" edge="1" parent="1" source="wu2h8seSkJCwCRgyOZjm-7" target="wu2h8seSkJCwCRgyOZjm-22">
          <mxGeometry relative="1" as="geometry">
            <Array as="points">
              <mxPoint x="990" y="471" />
              <mxPoint x="930" y="471" />
              <mxPoint x="930" y="676" />
            </Array>
          </mxGeometry>
        </mxCell>
        <mxCell id="wu2h8seSkJCwCRgyOZjm-25" style="edgeStyle=orthogonalEdgeStyle;rounded=0;orthogonalLoop=1;jettySize=auto;html=1;exitX=0.25;exitY=0;exitDx=0;exitDy=0;entryX=0;entryY=0.5;entryDx=0;entryDy=0;" edge="1" parent="1" source="wu2h8seSkJCwCRgyOZjm-7" target="wu2h8seSkJCwCRgyOZjm-24">
          <mxGeometry relative="1" as="geometry">
            <Array as="points">
              <mxPoint x="990" y="471" />
              <mxPoint x="930" y="471" />
              <mxPoint x="930" y="756" />
            </Array>
          </mxGeometry>
        </mxCell>
        <mxCell id="wu2h8seSkJCwCRgyOZjm-7" value="KeyEvent" style="swimlane;fontStyle=1;align=center;verticalAlign=top;childLayout=stackLayout;horizontal=1;startSize=26;horizontalStack=0;resizeParent=1;resizeParentMax=0;resizeLast=0;collapsible=1;marginBottom=0;whiteSpace=wrap;html=1;" vertex="1" parent="1">
          <mxGeometry x="950" y="491" width="160" height="52" as="geometry" />
        </mxCell>
        <mxCell id="wu2h8seSkJCwCRgyOZjm-8" value="- keyCode: KeyCode" style="text;strokeColor=none;fillColor=none;align=left;verticalAlign=top;spacingLeft=4;spacingRight=4;overflow=hidden;rotatable=0;points=[[0,0.5],[1,0.5]];portConstraint=eastwest;whiteSpace=wrap;html=1;" vertex="1" parent="wu2h8seSkJCwCRgyOZjm-7">
          <mxGeometry y="26" width="160" height="26" as="geometry" />
        </mxCell>
        <mxCell id="wu2h8seSkJCwCRgyOZjm-28" style="edgeStyle=orthogonalEdgeStyle;rounded=0;orthogonalLoop=1;jettySize=auto;html=1;exitX=0.25;exitY=0;exitDx=0;exitDy=0;entryX=0;entryY=0.5;entryDx=0;entryDy=0;" edge="1" parent="1" source="wu2h8seSkJCwCRgyOZjm-11" target="wu2h8seSkJCwCRgyOZjm-26">
          <mxGeometry relative="1" as="geometry">
            <Array as="points">
              <mxPoint x="1190" y="471" />
              <mxPoint x="1130" y="471" />
              <mxPoint x="1130" y="596" />
            </Array>
          </mxGeometry>
        </mxCell>
        <mxCell id="wu2h8seSkJCwCRgyOZjm-29" style="edgeStyle=orthogonalEdgeStyle;rounded=0;orthogonalLoop=1;jettySize=auto;html=1;exitX=0.25;exitY=0;exitDx=0;exitDy=0;entryX=0;entryY=0.5;entryDx=0;entryDy=0;" edge="1" parent="1" source="wu2h8seSkJCwCRgyOZjm-11" target="wu2h8seSkJCwCRgyOZjm-27">
          <mxGeometry relative="1" as="geometry">
            <Array as="points">
              <mxPoint x="1190" y="471" />
              <mxPoint x="1130" y="471" />
              <mxPoint x="1130" y="676" />
            </Array>
          </mxGeometry>
        </mxCell>
        <mxCell id="wu2h8seSkJCwCRgyOZjm-11" value="MouseButtonEvent" style="swimlane;fontStyle=1;align=center;verticalAlign=top;childLayout=stackLayout;horizontal=1;startSize=26;horizontalStack=0;resizeParent=1;resizeParentMax=0;resizeLast=0;collapsible=1;marginBottom=0;whiteSpace=wrap;html=1;" vertex="1" parent="1">
          <mxGeometry x="1150" y="491" width="160" height="52" as="geometry" />
        </mxCell>
        <mxCell id="wu2h8seSkJCwCRgyOZjm-12" value="- buttonCode: MouseCode" style="text;strokeColor=none;fillColor=none;align=left;verticalAlign=top;spacingLeft=4;spacingRight=4;overflow=hidden;rotatable=0;points=[[0,0.5],[1,0.5]];portConstraint=eastwest;whiteSpace=wrap;html=1;" vertex="1" parent="wu2h8seSkJCwCRgyOZjm-11">
          <mxGeometry y="26" width="160" height="26" as="geometry" />
        </mxCell>
        <mxCell id="wu2h8seSkJCwCRgyOZjm-16" value="MouseMovedEvent" style="swimlane;fontStyle=1;align=center;verticalAlign=top;childLayout=stackLayout;horizontal=1;startSize=26;horizontalStack=0;resizeParent=1;resizeParentMax=0;resizeLast=0;collapsible=1;marginBottom=0;whiteSpace=wrap;html=1;" vertex="1" parent="1">
          <mxGeometry x="1350" y="491" width="160" height="78" as="geometry" />
        </mxCell>
        <mxCell id="wu2h8seSkJCwCRgyOZjm-17" value="- x: int" style="text;strokeColor=none;fillColor=none;align=left;verticalAlign=top;spacingLeft=4;spacingRight=4;overflow=hidden;rotatable=0;points=[[0,0.5],[1,0.5]];portConstraint=eastwest;whiteSpace=wrap;html=1;" vertex="1" parent="wu2h8seSkJCwCRgyOZjm-16">
          <mxGeometry y="26" width="160" height="26" as="geometry" />
        </mxCell>
        <mxCell id="wu2h8seSkJCwCRgyOZjm-30" value="- y: int" style="text;strokeColor=none;fillColor=none;align=left;verticalAlign=top;spacingLeft=4;spacingRight=4;overflow=hidden;rotatable=0;points=[[0,0.5],[1,0.5]];portConstraint=eastwest;whiteSpace=wrap;html=1;" vertex="1" parent="wu2h8seSkJCwCRgyOZjm-16">
          <mxGeometry y="52" width="160" height="26" as="geometry" />
        </mxCell>
        <mxCell id="wu2h8seSkJCwCRgyOZjm-20" value="KeyPressedEvent" style="html=1;whiteSpace=wrap;" vertex="1" parent="1">
          <mxGeometry x="950" y="571" width="160" height="50" as="geometry" />
        </mxCell>
        <mxCell id="wu2h8seSkJCwCRgyOZjm-22" value="KeyReleasedEvent" style="html=1;whiteSpace=wrap;" vertex="1" parent="1">
          <mxGeometry x="950" y="651" width="160" height="50" as="geometry" />
        </mxCell>
        <mxCell id="wu2h8seSkJCwCRgyOZjm-24" value="KeyTypedEvent" style="html=1;whiteSpace=wrap;" vertex="1" parent="1">
          <mxGeometry x="950" y="731" width="160" height="50" as="geometry" />
        </mxCell>
        <mxCell id="wu2h8seSkJCwCRgyOZjm-26" value="MouseButtonPressedEvent" style="html=1;whiteSpace=wrap;" vertex="1" parent="1">
          <mxGeometry x="1150" y="571" width="160" height="50" as="geometry" />
        </mxCell>
        <mxCell id="wu2h8seSkJCwCRgyOZjm-27" value="MouseButtonReleasedEvent" style="html=1;whiteSpace=wrap;" vertex="1" parent="1">
          <mxGeometry x="1150" y="651" width="160" height="50" as="geometry" />
        </mxCell>
        <mxCell id="wu2h8seSkJCwCRgyOZjm-31" value="MouseScrolledEvent" style="swimlane;fontStyle=1;align=center;verticalAlign=top;childLayout=stackLayout;horizontal=1;startSize=26;horizontalStack=0;resizeParent=1;resizeParentMax=0;resizeLast=0;collapsible=1;marginBottom=0;whiteSpace=wrap;html=1;" vertex="1" parent="1">
          <mxGeometry x="1550" y="491" width="160" height="78" as="geometry" />
        </mxCell>
        <mxCell id="wu2h8seSkJCwCRgyOZjm-32" value="- x: int" style="text;strokeColor=none;fillColor=none;align=left;verticalAlign=top;spacingLeft=4;spacingRight=4;overflow=hidden;rotatable=0;points=[[0,0.5],[1,0.5]];portConstraint=eastwest;whiteSpace=wrap;html=1;" vertex="1" parent="wu2h8seSkJCwCRgyOZjm-31">
          <mxGeometry y="26" width="160" height="26" as="geometry" />
        </mxCell>
        <mxCell id="wu2h8seSkJCwCRgyOZjm-33" value="- y: int" style="text;strokeColor=none;fillColor=none;align=left;verticalAlign=top;spacingLeft=4;spacingRight=4;overflow=hidden;rotatable=0;points=[[0,0.5],[1,0.5]];portConstraint=eastwest;whiteSpace=wrap;html=1;" vertex="1" parent="wu2h8seSkJCwCRgyOZjm-31">
          <mxGeometry y="52" width="160" height="26" as="geometry" />
        </mxCell>
        <mxCell id="wu2h8seSkJCwCRgyOZjm-36" value="WindowResizeEvent" style="swimlane;fontStyle=1;align=center;verticalAlign=top;childLayout=stackLayout;horizontal=1;startSize=26;horizontalStack=0;resizeParent=1;resizeParentMax=0;resizeLast=0;collapsible=1;marginBottom=0;whiteSpace=wrap;html=1;" vertex="1" parent="1">
          <mxGeometry x="1750" y="491" width="160" height="78" as="geometry" />
        </mxCell>
        <mxCell id="wu2h8seSkJCwCRgyOZjm-37" value="- width: int" style="text;strokeColor=none;fillColor=none;align=left;verticalAlign=top;spacingLeft=4;spacingRight=4;overflow=hidden;rotatable=0;points=[[0,0.5],[1,0.5]];portConstraint=eastwest;whiteSpace=wrap;html=1;" vertex="1" parent="wu2h8seSkJCwCRgyOZjm-36">
          <mxGeometry y="26" width="160" height="26" as="geometry" />
        </mxCell>
        <mxCell id="wu2h8seSkJCwCRgyOZjm-38" value="- height: int" style="text;strokeColor=none;fillColor=none;align=left;verticalAlign=top;spacingLeft=4;spacingRight=4;overflow=hidden;rotatable=0;points=[[0,0.5],[1,0.5]];portConstraint=eastwest;whiteSpace=wrap;html=1;" vertex="1" parent="wu2h8seSkJCwCRgyOZjm-36">
          <mxGeometry y="52" width="160" height="26" as="geometry" />
        </mxCell>
        <mxCell id="wu2h8seSkJCwCRgyOZjm-42" value="WindowDropEvent" style="swimlane;fontStyle=1;align=center;verticalAlign=top;childLayout=stackLayout;horizontal=1;startSize=26;horizontalStack=0;resizeParent=1;resizeParentMax=0;resizeLast=0;collapsible=1;marginBottom=0;whiteSpace=wrap;html=1;" vertex="1" parent="1">
          <mxGeometry x="2150" y="488" width="160" height="52" as="geometry" />
        </mxCell>
        <mxCell id="wu2h8seSkJCwCRgyOZjm-43" value="- path: string" style="text;strokeColor=none;fillColor=none;align=left;verticalAlign=top;spacingLeft=4;spacingRight=4;overflow=hidden;rotatable=0;points=[[0,0.5],[1,0.5]];portConstraint=eastwest;whiteSpace=wrap;html=1;" vertex="1" parent="wu2h8seSkJCwCRgyOZjm-42">
          <mxGeometry y="26" width="160" height="26" as="geometry" />
        </mxCell>
        <mxCell id="wu2h8seSkJCwCRgyOZjm-51" value="WindowCloseEvent" style="html=1;whiteSpace=wrap;" vertex="1" parent="1">
          <mxGeometry x="1950" y="490" width="160" height="50" as="geometry" />
        </mxCell>
        <mxCell id="wu2h8seSkJCwCRgyOZjm-53" value="WindowFocusEvent" style="html=1;whiteSpace=wrap;" vertex="1" parent="1">
          <mxGeometry x="2350" y="488" width="160" height="50" as="geometry" />
        </mxCell>
        <mxCell id="wu2h8seSkJCwCRgyOZjm-54" value="WindowLostFocusEvent" style="html=1;whiteSpace=wrap;" vertex="1" parent="1">
          <mxGeometry x="2550" y="488" width="160" height="50" as="geometry" />
        </mxCell>
        <mxCell id="wu2h8seSkJCwCRgyOZjm-60" value="AppUpdateEvent" style="html=1;whiteSpace=wrap;" vertex="1" parent="1">
          <mxGeometry x="2750" y="488" width="160" height="50" as="geometry" />
        </mxCell>
        <mxCell id="wu2h8seSkJCwCRgyOZjm-61" value="AppTickEvent" style="html=1;whiteSpace=wrap;" vertex="1" parent="1">
          <mxGeometry x="2950" y="488" width="160" height="50" as="geometry" />
        </mxCell>
        <mxCell id="wu2h8seSkJCwCRgyOZjm-62" value="AppRenderEvent" style="html=1;whiteSpace=wrap;" vertex="1" parent="1">
          <mxGeometry x="3150" y="488" width="160" height="50" as="geometry" />
        </mxCell>
      </root>
    </mxGraphModel>
  </diagram>
</mxfile>
